<svg xmlns="http://www.w3.org/2000/svg" width="104.597" height="130.764" viewBox="0 0 104.597 130.764">
  <g id="Page-1" transform="translate(584.013 99)">
    <g id="_011---Scooter" data-name="011---Scooter" transform="translate(-584.013 -99)">
      <path id="Shape" d="M9.733,0a8.718,8.718,0,1,0,6.3,14.717l9.786,5.435a4.409,4.409,0,0,1,2.114,2.731l.826,3.328a4.339,4.339,0,0,0-3.16,2.121H11.913a6.538,6.538,0,1,0,0,13.076H25.595a4.344,4.344,0,0,0,3.753,2.179h1.016A47.511,47.511,0,0,0,18.451,76.279c0,23.677,4.163,29.038,5,29.873a2.241,2.241,0,0,0,.231.2c.283.218,6.837,5.013,20.922,6.51v9.184a8.718,8.718,0,1,0,17.435,0v-9.184c14.088-1.5,20.641-6.3,20.922-6.51a2.242,2.242,0,0,0,.231-.2c.839-.835,5-6.2,5-29.873A47.511,47.511,0,0,0,76.279,43.588h1.016a4.344,4.344,0,0,0,3.753-2.179H94.73a6.538,6.538,0,1,0,0-13.076H81.048a4.339,4.339,0,0,0-3.16-2.121l.817-3.3a4.444,4.444,0,0,1,2.131-2.768l9.777-5.429a8.7,8.7,0,1,0-2.421-6A8.609,8.609,0,0,0,88.5,10.9l-9.77,5.433a8.82,8.82,0,0,0-4.252,5.505l-1.07,4.317h-6.32a15.223,15.223,0,0,0-27.526,0h-6.32l-1.09-4.346a8.787,8.787,0,0,0-4.235-5.462L18.139,10.9a8.609,8.609,0,0,0,.312-2.179A8.718,8.718,0,0,0,9.733,0ZM96.909,4.359A4.359,4.359,0,1,1,92.55,8.718,4.359,4.359,0,0,1,96.909,4.359ZM9.733,34.87a2.179,2.179,0,0,1,2.179-2.179H24.989V37.05H11.913A2.179,2.179,0,0,1,9.733,34.87ZM53.321,78.458A20.863,20.863,0,0,1,66.4,82.493V98.35a39.728,39.728,0,0,1-13.076,1.9,39.733,39.733,0,0,1-13.076-1.9V82.495A20.85,20.85,0,0,1,53.321,78.458Zm0,47.947a4.359,4.359,0,0,1-4.359-4.359V104.43c1.351.1,2.779.181,4.359.181s3.008-.076,4.359-.181v17.616A4.359,4.359,0,0,1,53.321,126.405ZM83.833,76.279c0,20.343-3.217,26-3.668,26.711-1.09.717-6.9,4.219-18.126,5.5v-4.577a28.942,28.942,0,0,0,7.536-2.147,2.179,2.179,0,0,0,1.181-1.946V81.51a2.179,2.179,0,0,0-.617-1.526A23.394,23.394,0,0,0,55.5,74.18V56.664a2.179,2.179,0,0,0-4.359,0V74.18a23.394,23.394,0,0,0-14.639,5.8,2.179,2.179,0,0,0-.617,1.526V99.817a2.179,2.179,0,0,0,1.181,1.937A28.943,28.943,0,0,0,44.6,103.9v4.577C33.46,107.209,27.654,103.75,26.515,103c-.595-.911-3.7-6.719-3.7-26.724,0-20.268,11.2-30.564,13.82-32.691h6.035a15.208,15.208,0,0,0,21.315,0h6.035C72.639,45.722,83.833,56.011,83.833,76.279ZM96.909,34.87A2.179,2.179,0,0,1,94.73,37.05H81.653V32.691H94.73A2.179,2.179,0,0,1,96.909,34.87ZM77.295,30.512v8.718H67.084a15.121,15.121,0,0,0,1.493-6.538,15.313,15.313,0,0,0-.174-2.179ZM53.321,21.794a10.9,10.9,0,1,1-10.9,10.9A10.9,10.9,0,0,1,53.321,21.794ZM39.558,39.229H29.348V30.512H38.24a15.312,15.312,0,0,0-.174,2.179A15.121,15.121,0,0,0,39.558,39.229ZM9.733,13.076A4.359,4.359,0,1,1,12.815,11.8,4.359,4.359,0,0,1,9.733,13.076Z" transform="translate(-0.987 0)" fill="#281163"/>
      <path id="Shape-2" data-name="Shape" d="M18.045,28.111a2.179,2.179,0,0,0-2.755,1.38A49.361,49.361,0,0,0,13,43.256a2.179,2.179,0,1,0,4.359,0,45.6,45.6,0,0,1,2.068-12.39,2.179,2.179,0,0,0-1.382-2.755Z" transform="translate(13.182 33.023)" fill="#281163"/>
      <path id="Shape-3" data-name="Shape" d="M36.182,43.258a2.179,2.179,0,0,0,4.359,0A49.362,49.362,0,0,0,38.25,29.493a2.182,2.182,0,0,0-4.141,1.375A45.6,45.6,0,0,1,36.182,43.258Z" transform="translate(37.946 33.021)" fill="#281163"/>
      <circle id="Oval" cx="2.179" cy="2.179" r="2.179" transform="translate(50.155 30.512)" fill="#281163"/>
    </g>
  </g>
</svg>
